<mxfile host="Electron" modified="2024-03-31T17:52:18.031Z" agent="Mozilla/5.0 (Macintosh; Intel Mac OS X 10_15_7) AppleWebKit/537.36 (KHTML, like Gecko) draw.io/24.1.0 Chrome/120.0.6099.109 Electron/28.1.0 Safari/537.36" etag="Du-lPg-c_aQCGhb1bpLm" version="24.1.0" type="device">
  <diagram id="C5RBs43oDa-KdzZeNtuy" name="Page-1">
    <mxGraphModel dx="1026" dy="743" grid="1" gridSize="10" guides="1" tooltips="1" connect="1" arrows="1" fold="1" page="1" pageScale="1" pageWidth="827" pageHeight="1169" math="0" shadow="0">
      <root>
        <mxCell id="WIyWlLk6GJQsqaUBKTNV-0" />
        <mxCell id="WIyWlLk6GJQsqaUBKTNV-1" parent="WIyWlLk6GJQsqaUBKTNV-0" />
        <mxCell id="c_oGM3YWQMttX7rPU6uM-0" value="«interface»&lt;br&gt;&lt;b&gt;State&lt;/b&gt;&lt;div&gt;&lt;b&gt;&lt;br&gt;&lt;/b&gt;&lt;/div&gt;&lt;div style=&quot;text-align: left;&quot;&gt;insertQuarter()&lt;/div&gt;&lt;div style=&quot;text-align: left;&quot;&gt;ejectQuarter()&lt;/div&gt;&lt;div style=&quot;text-align: left;&quot;&gt;turnCrank()&lt;/div&gt;&lt;div style=&quot;text-align: left;&quot;&gt;dispense()&lt;/div&gt;" style="html=1;whiteSpace=wrap;" vertex="1" parent="WIyWlLk6GJQsqaUBKTNV-1">
          <mxGeometry x="340" y="60" width="110" height="120" as="geometry" />
        </mxCell>
        <mxCell id="c_oGM3YWQMttX7rPU6uM-1" value="SoldState" style="swimlane;fontStyle=0;childLayout=stackLayout;horizontal=1;startSize=26;fillColor=none;horizontalStack=0;resizeParent=1;resizeParentMax=0;resizeLast=0;collapsible=1;marginBottom=0;whiteSpace=wrap;html=1;" vertex="1" parent="WIyWlLk6GJQsqaUBKTNV-1">
          <mxGeometry x="30" y="280" width="140" height="110" as="geometry" />
        </mxCell>
        <mxCell id="c_oGM3YWQMttX7rPU6uM-3" value="&lt;div&gt;insertQuarter() {...}&lt;/div&gt;&lt;div&gt;ejectQuarter() {...}&lt;/div&gt;&lt;div&gt;turnCrank() {...}&lt;/div&gt;&lt;div&gt;dispense() {...}&lt;/div&gt;&lt;div&gt;getters/setters()&lt;/div&gt;" style="text;strokeColor=none;fillColor=none;align=left;verticalAlign=top;spacingLeft=4;spacingRight=4;overflow=hidden;rotatable=0;points=[[0,0.5],[1,0.5]];portConstraint=eastwest;whiteSpace=wrap;html=1;" vertex="1" parent="c_oGM3YWQMttX7rPU6uM-1">
          <mxGeometry y="26" width="140" height="84" as="geometry" />
        </mxCell>
        <mxCell id="c_oGM3YWQMttX7rPU6uM-17" value="SoldOutState" style="swimlane;fontStyle=0;childLayout=stackLayout;horizontal=1;startSize=26;fillColor=none;horizontalStack=0;resizeParent=1;resizeParentMax=0;resizeLast=0;collapsible=1;marginBottom=0;whiteSpace=wrap;html=1;" vertex="1" parent="WIyWlLk6GJQsqaUBKTNV-1">
          <mxGeometry x="230" y="280" width="140" height="110" as="geometry" />
        </mxCell>
        <mxCell id="c_oGM3YWQMttX7rPU6uM-18" value="&lt;div&gt;insertQuarter() {...}&lt;/div&gt;&lt;div&gt;ejectQuarter() {...}&lt;/div&gt;&lt;div&gt;turnCrank() {...}&lt;/div&gt;&lt;div&gt;dispense() {...}&lt;/div&gt;&lt;div&gt;getters/setters()&lt;/div&gt;" style="text;strokeColor=none;fillColor=none;align=left;verticalAlign=top;spacingLeft=4;spacingRight=4;overflow=hidden;rotatable=0;points=[[0,0.5],[1,0.5]];portConstraint=eastwest;whiteSpace=wrap;html=1;" vertex="1" parent="c_oGM3YWQMttX7rPU6uM-17">
          <mxGeometry y="26" width="140" height="84" as="geometry" />
        </mxCell>
        <mxCell id="c_oGM3YWQMttX7rPU6uM-19" value="NoQuarterState" style="swimlane;fontStyle=0;childLayout=stackLayout;horizontal=1;startSize=26;fillColor=none;horizontalStack=0;resizeParent=1;resizeParentMax=0;resizeLast=0;collapsible=1;marginBottom=0;whiteSpace=wrap;html=1;" vertex="1" parent="WIyWlLk6GJQsqaUBKTNV-1">
          <mxGeometry x="430" y="280" width="140" height="110" as="geometry" />
        </mxCell>
        <mxCell id="c_oGM3YWQMttX7rPU6uM-20" value="&lt;div&gt;insertQuarter() {...}&lt;/div&gt;&lt;div&gt;ejectQuarter() {...}&lt;/div&gt;&lt;div&gt;turnCrank() {...}&lt;/div&gt;&lt;div&gt;dispense() {...}&lt;/div&gt;&lt;div&gt;getters/setters()&lt;/div&gt;" style="text;strokeColor=none;fillColor=none;align=left;verticalAlign=top;spacingLeft=4;spacingRight=4;overflow=hidden;rotatable=0;points=[[0,0.5],[1,0.5]];portConstraint=eastwest;whiteSpace=wrap;html=1;" vertex="1" parent="c_oGM3YWQMttX7rPU6uM-19">
          <mxGeometry y="26" width="140" height="84" as="geometry" />
        </mxCell>
        <mxCell id="c_oGM3YWQMttX7rPU6uM-21" value="HasQuarterState" style="swimlane;fontStyle=0;childLayout=stackLayout;horizontal=1;startSize=26;fillColor=none;horizontalStack=0;resizeParent=1;resizeParentMax=0;resizeLast=0;collapsible=1;marginBottom=0;whiteSpace=wrap;html=1;" vertex="1" parent="WIyWlLk6GJQsqaUBKTNV-1">
          <mxGeometry x="630" y="280" width="140" height="110" as="geometry" />
        </mxCell>
        <mxCell id="c_oGM3YWQMttX7rPU6uM-22" value="&lt;div&gt;insertQuarter() {...}&lt;/div&gt;&lt;div&gt;ejectQuarter() {...}&lt;/div&gt;&lt;div&gt;turnCrank() {...}&lt;/div&gt;&lt;div&gt;dispense() {...}&lt;/div&gt;&lt;div&gt;getters/setters()&lt;/div&gt;" style="text;strokeColor=none;fillColor=none;align=left;verticalAlign=top;spacingLeft=4;spacingRight=4;overflow=hidden;rotatable=0;points=[[0,0.5],[1,0.5]];portConstraint=eastwest;whiteSpace=wrap;html=1;" vertex="1" parent="c_oGM3YWQMttX7rPU6uM-21">
          <mxGeometry y="26" width="140" height="84" as="geometry" />
        </mxCell>
        <mxCell id="c_oGM3YWQMttX7rPU6uM-23" value="" style="endArrow=block;dashed=1;endFill=0;endSize=12;html=1;rounded=0;entryX=0.155;entryY=1.017;entryDx=0;entryDy=0;entryPerimeter=0;exitX=0.5;exitY=0;exitDx=0;exitDy=0;" edge="1" parent="WIyWlLk6GJQsqaUBKTNV-1" source="c_oGM3YWQMttX7rPU6uM-1" target="c_oGM3YWQMttX7rPU6uM-0">
          <mxGeometry width="160" relative="1" as="geometry">
            <mxPoint x="90" y="210" as="sourcePoint" />
            <mxPoint x="250" y="210" as="targetPoint" />
          </mxGeometry>
        </mxCell>
        <mxCell id="c_oGM3YWQMttX7rPU6uM-24" value="" style="endArrow=block;dashed=1;endFill=0;endSize=12;html=1;rounded=0;entryX=0.436;entryY=1.017;entryDx=0;entryDy=0;entryPerimeter=0;exitX=0.5;exitY=0;exitDx=0;exitDy=0;" edge="1" parent="WIyWlLk6GJQsqaUBKTNV-1" source="c_oGM3YWQMttX7rPU6uM-17" target="c_oGM3YWQMttX7rPU6uM-0">
          <mxGeometry width="160" relative="1" as="geometry">
            <mxPoint x="100" y="220" as="sourcePoint" />
            <mxPoint x="260" y="220" as="targetPoint" />
          </mxGeometry>
        </mxCell>
        <mxCell id="c_oGM3YWQMttX7rPU6uM-25" value="" style="endArrow=block;dashed=1;endFill=0;endSize=12;html=1;rounded=0;entryX=0.655;entryY=1.033;entryDx=0;entryDy=0;entryPerimeter=0;exitX=0.5;exitY=0;exitDx=0;exitDy=0;" edge="1" parent="WIyWlLk6GJQsqaUBKTNV-1" source="c_oGM3YWQMttX7rPU6uM-19" target="c_oGM3YWQMttX7rPU6uM-0">
          <mxGeometry width="160" relative="1" as="geometry">
            <mxPoint x="110" y="230" as="sourcePoint" />
            <mxPoint x="270" y="230" as="targetPoint" />
          </mxGeometry>
        </mxCell>
        <mxCell id="c_oGM3YWQMttX7rPU6uM-26" value="" style="endArrow=block;dashed=1;endFill=0;endSize=12;html=1;rounded=0;entryX=0.827;entryY=1.017;entryDx=0;entryDy=0;entryPerimeter=0;exitX=0.5;exitY=0;exitDx=0;exitDy=0;" edge="1" parent="WIyWlLk6GJQsqaUBKTNV-1" source="c_oGM3YWQMttX7rPU6uM-21" target="c_oGM3YWQMttX7rPU6uM-0">
          <mxGeometry width="160" relative="1" as="geometry">
            <mxPoint x="120" y="240" as="sourcePoint" />
            <mxPoint x="280" y="240" as="targetPoint" />
          </mxGeometry>
        </mxCell>
        <mxCell id="c_oGM3YWQMttX7rPU6uM-27" value="Context" style="swimlane;fontStyle=0;childLayout=stackLayout;horizontal=1;startSize=26;fillColor=none;horizontalStack=0;resizeParent=1;resizeParentMax=0;resizeLast=0;collapsible=1;marginBottom=0;whiteSpace=wrap;html=1;" vertex="1" parent="WIyWlLk6GJQsqaUBKTNV-1">
          <mxGeometry x="50" y="50" width="140" height="70" as="geometry" />
        </mxCell>
        <mxCell id="c_oGM3YWQMttX7rPU6uM-28" value="request()&amp;nbsp;&lt;div&gt;&lt;span style=&quot;white-space: pre;&quot;&gt;&#x9;&lt;/span&gt;{state.method() }&lt;/div&gt;" style="text;strokeColor=none;fillColor=none;align=left;verticalAlign=top;spacingLeft=4;spacingRight=4;overflow=hidden;rotatable=0;points=[[0,0.5],[1,0.5]];portConstraint=eastwest;whiteSpace=wrap;html=1;" vertex="1" parent="c_oGM3YWQMttX7rPU6uM-27">
          <mxGeometry y="26" width="140" height="44" as="geometry" />
        </mxCell>
        <mxCell id="c_oGM3YWQMttX7rPU6uM-31" value="" style="endArrow=classic;html=1;rounded=0;exitX=0.993;exitY=0.045;exitDx=0;exitDy=0;exitPerimeter=0;entryX=0.009;entryY=0.175;entryDx=0;entryDy=0;entryPerimeter=0;" edge="1" parent="WIyWlLk6GJQsqaUBKTNV-1" source="c_oGM3YWQMttX7rPU6uM-28" target="c_oGM3YWQMttX7rPU6uM-0">
          <mxGeometry width="50" height="50" relative="1" as="geometry">
            <mxPoint x="250" y="80" as="sourcePoint" />
            <mxPoint x="300" y="30" as="targetPoint" />
          </mxGeometry>
        </mxCell>
      </root>
    </mxGraphModel>
  </diagram>
</mxfile>
